<svg width="266" height="196" viewBox="0 0 266 196" fill="none" xmlns="http://www.w3.org/2000/svg">
<path d="M143.994 178.096L33.676 112.92C30.164 110.946 27.153 107.711 30.576 105.589L141.286 41.8C142.946 40.77 145.467 40.095 147.159 41.08L262.945 108.27C266.457 110.308 267.087 115.987 263.588 118.044L158.532 177.994C156.327 179.273 153.826 179.955 151.277 179.973C148.727 179.99 146.217 179.344 143.994 178.096V178.096Z" fill="#5B36A0"/>
<path d="M143.994 175.088L33.676 109.91C30.164 107.935 27.153 104.7 30.576 102.578L141.286 38.79C142.946 37.761 145.467 37.086 147.159 38.07L262.945 105.26C266.457 107.299 267.087 112.977 263.588 115.035L158.532 174.984C156.327 176.263 153.826 176.945 151.277 176.963C148.727 176.981 146.217 176.335 143.994 175.087V175.088Z" fill="#6862E6"/>
<path style="mix-blend-mode:multiply" opacity="0.25" d="M153.09 89.094L131.322 101.512C131.322 101.512 164.855 121.969 171.712 124.85L184.249 106.843" fill="url(#paint0_linear)"/>
<path style="mix-blend-mode:multiply" opacity="0.25" d="M145.57 148.67L123.796 136.277L102.022 148.695C102.022 148.695 113.362 155.615 124.202 161.969C131.084 157.101 137.973 152.181 145.57 148.669V148.67Z" fill="url(#paint1_linear)"/>
<path style="mix-blend-mode:multiply" opacity="0.46" d="M98.658 72.142L84.847 80.02C84.847 80.02 86.017 87.242 92.875 90.123L110.957 78.547" fill="url(#paint2_linear)"/>
<path d="M105.418 80.02C110.019 80.02 113.748 77.3942 113.748 74.155C113.748 70.9159 110.019 68.29 105.418 68.29C100.817 68.29 97.088 70.9159 97.088 74.155C97.088 77.3942 100.817 80.02 105.418 80.02Z" fill="#68E1FD"/>
<path d="M105.412 73.248C108.858 73.248 111.652 72.105 111.652 70.695C111.652 69.285 108.858 68.142 105.412 68.142C101.966 68.142 99.172 69.285 99.172 70.695C99.172 72.105 101.966 73.248 105.412 73.248Z" fill="#974C26"/>
<path d="M105.187 66.438C105.187 65.287 105.148 64.135 105.058 62.984C105.032 62.684 105.004 62.386 104.974 62.09L104.91 61.505C104.91 61.332 104.82 60.862 104.82 60.907C104.781 60.671 104.74 60.437 104.698 60.207C104.018 56.299 102.499 52.5846 100.247 49.319C99.3994 51.3354 98.9766 53.5049 99.005 55.692C99.005 56.335 99.056 56.978 99.108 57.582V57.962C99.3615 59.4539 99.749 60.9198 100.266 62.342C100.635 63.3786 101.084 64.3847 101.61 65.351C102.178 66.4389 102.794 67.5009 103.456 68.534C103.971 69.344 104.46 70.064 104.956 70.753C105.11 69.319 105.18 67.878 105.186 66.438H105.187ZM101.913 53.492C101.946 53.3438 101.946 53.1902 101.913 53.042C102.071 53.205 102.228 53.372 102.383 53.544C102.228 53.4999 102.067 53.4823 101.906 53.492H101.913Z" fill="#999A1C"/>
<path d="M107.329 67.325C107.972 66.355 108.539 65.395 109.085 64.348C109.226 64.082 109.364 63.816 109.497 63.55L109.76 63.016L110.011 62.463L110.288 61.82C111.83 58.1617 112.561 54.2128 112.43 50.245C110.622 51.483 109.089 53.0811 107.927 54.939C107.594 55.475 107.282 56.0244 106.994 56.586L106.866 56.823L106.833 56.926C106.711 57.216 106.589 57.506 106.473 57.801C106.046 58.9215 105.701 60.0711 105.438 61.241C105.187 62.3133 105.022 63.4037 104.942 64.502C104.828 65.7227 104.773 66.9481 104.775 68.174C104.775 69.132 104.775 70.007 104.833 70.849C105.688 69.711 106.55 68.541 107.329 67.325V67.325ZM111.574 54.663C111.675 54.55 111.75 54.416 111.793 54.27C111.84 54.493 111.881 54.708 111.915 54.914C111.815 54.814 111.7 54.729 111.575 54.663H111.574Z" fill="#999A1C"/>
<path d="M107.284 70.193C107.931 69.872 108.574 69.525 109.214 69.152L109.696 68.856L110.011 68.656L110.32 68.438L110.68 68.174C112.691 66.6984 114.359 64.805 115.569 62.624C114.196 62.7121 112.856 63.0821 111.632 63.711C111.278 63.891 110.937 64.091 110.596 64.296L110.449 64.386L110.397 64.431L109.921 64.785C109.328 65.252 108.769 65.762 108.249 66.309C107.768 66.807 107.327 67.343 106.929 67.91C106.483 68.5413 106.054 69.1849 105.643 69.84C105.335 70.354 105.058 70.836 104.813 71.306C105.643 70.959 106.473 70.598 107.283 70.193H107.284ZM113.664 64.727C113.755 64.6988 113.839 64.6506 113.909 64.586C113.862 64.7227 113.811 64.8577 113.755 64.991C113.738 64.9013 113.708 64.8146 113.665 64.734V64.727H113.664ZM105.187 66.438C105.187 65.287 105.148 64.135 105.058 62.984C105.032 62.684 105.004 62.386 104.974 62.09L104.91 61.505C104.91 61.332 104.82 60.862 104.82 60.907C104.781 60.671 104.74 60.437 104.698 60.207C104.018 56.299 102.499 52.5846 100.247 49.319C99.3994 51.3354 98.9766 53.5049 99.005 55.692C99.005 56.335 99.056 56.978 99.108 57.582V57.962C99.3615 59.4539 99.749 60.9198 100.266 62.342C100.635 63.3786 101.084 64.3847 101.61 65.351C102.178 66.4389 102.794 67.5009 103.456 68.534C103.971 69.344 104.46 70.064 104.956 70.753C105.11 69.319 105.18 67.878 105.186 66.438H105.187ZM101.913 53.492C101.946 53.3438 101.946 53.1902 101.913 53.042C102.071 53.205 102.228 53.372 102.383 53.544C102.228 53.4999 102.067 53.4823 101.906 53.492H101.913Z" fill="#999A1C"/>
<path d="M107.329 67.325C107.972 66.355 108.539 65.395 109.085 64.348C109.226 64.082 109.364 63.816 109.497 63.55L109.76 63.016L110.011 62.463L110.288 61.82C111.83 58.1617 112.561 54.2128 112.43 50.245C110.622 51.483 109.089 53.0811 107.927 54.939C107.594 55.475 107.282 56.0244 106.994 56.586L106.866 56.823L106.833 56.926C106.711 57.216 106.589 57.506 106.473 57.801C106.046 58.9215 105.701 60.0711 105.438 61.241C105.187 62.3133 105.022 63.4037 104.942 64.502C104.828 65.7227 104.773 66.9481 104.775 68.174C104.775 69.132 104.775 70.007 104.833 70.849C105.688 69.711 106.55 68.541 107.329 67.325V67.325ZM111.574 54.663C111.675 54.55 111.75 54.416 111.793 54.27C111.84 54.493 111.881 54.708 111.915 54.914C111.815 54.814 111.7 54.729 111.575 54.663H111.574Z" fill="#999A1C"/>
<path d="M107.284 70.193C107.931 69.872 108.574 69.525 109.214 69.152L109.696 68.856L110.011 68.656L110.32 68.438L110.68 68.174C112.691 66.6983 114.359 64.805 115.569 62.624C114.196 62.7121 112.856 63.0821 111.632 63.711C111.278 63.891 110.937 64.091 110.596 64.296L110.449 64.386L110.397 64.431L109.921 64.785C109.328 65.252 108.769 65.762 108.249 66.309C107.768 66.807 107.327 67.343 106.929 67.91C106.483 68.5413 106.054 69.1849 105.643 69.84C105.335 70.354 105.058 70.836 104.813 71.306C105.643 70.959 106.473 70.598 107.283 70.193H107.284ZM113.664 64.727C113.755 64.6987 113.839 64.6506 113.909 64.586C113.862 64.7226 113.811 64.8577 113.755 64.991C113.738 64.9013 113.708 64.8146 113.665 64.734V64.727H113.664Z" fill="#999A1C"/>
<path d="M161.735 84.245L149.687 90.033C149.233 90.2512 148.848 90.5889 148.571 91.0097C148.295 91.4306 148.138 91.9188 148.118 92.4219C148.099 92.9251 148.216 93.4241 148.459 93.8654C148.701 94.3067 149.059 94.6737 149.494 94.927L178.048 111.583C178.665 111.944 179.398 112.052 180.093 111.885C180.788 111.719 181.392 111.29 181.779 110.689L188.719 99.898" fill="#A1482D"/>
<path d="M227.264 56.328L131.194 0.984002C130.535 0.60514 129.788 0.406198 129.028 0.407123C128.268 0.408048 127.521 0.608809 126.863 0.989274C126.205 1.36974 125.658 1.91654 125.278 2.57484C124.898 3.23315 124.698 3.97982 124.697 4.74V62.315C124.697 63.602 125.383 64.791 126.497 65.435L228.917 124.541C229.27 124.745 229.671 124.853 230.079 124.853C230.487 124.853 230.888 124.746 231.242 124.542C231.595 124.338 231.888 124.044 232.092 123.691C232.296 123.337 232.403 122.936 232.403 122.528V65.19C232.401 63.3913 231.925 61.6248 231.023 60.0688C230.12 58.5129 228.824 57.2225 227.263 56.328H227.264Z" fill="#F47B56"/>
<path d="M131.2 5.33799L224.369 58.926C225.364 59.4986 226.19 60.3233 226.765 61.3169C227.34 62.3106 227.643 63.4381 227.643 64.586V107.743C227.642 108.156 227.533 108.562 227.327 108.919C227.12 109.277 226.823 109.574 226.466 109.781C226.108 109.988 225.703 110.098 225.29 110.099C224.877 110.1 224.471 109.993 224.112 109.788L129.096 55.306C128.74 55.1021 128.445 54.8079 128.24 54.4532C128.034 54.0985 127.926 53.6959 127.926 53.286V7.23499C127.926 6.85168 128.026 6.47505 128.218 6.1429C128.409 5.81074 128.684 5.53474 129.016 5.34256C129.348 5.15039 129.724 5.04881 130.107 5.04801C130.491 5.04721 130.868 5.14721 131.2 5.33799V5.33799Z" fill="white"/>
<path d="M170.402 86.7402C171.501 86.5286 172.195 85.3394 171.953 84.0839C171.712 82.8284 170.625 81.9822 169.526 82.1938C168.428 82.4054 167.733 83.5946 167.975 84.8501C168.216 86.1056 169.303 86.9518 170.402 86.7402Z" fill="#AB643C"/>
<path opacity="0.32" d="M156.242 63.891L199.539 89.898L220.928 77.467L182.712 55.229" fill="url(#paint3_linear)"/>
<path d="M209.748 58.714L162.938 30.18C162.687 30.0352 162.403 29.9602 162.113 29.9626C161.824 29.9651 161.541 30.0449 161.292 30.1939C161.044 30.3429 160.841 30.5556 160.703 30.8099C160.564 31.0642 160.497 31.3508 160.507 31.64V47.897C160.505 48.1913 160.579 48.481 160.722 48.7381C160.865 48.9952 161.073 49.2108 161.324 49.364L208.127 77.294C208.373 77.4336 208.652 77.5062 208.934 77.5043C209.217 77.5025 209.495 77.4264 209.739 77.2836C209.983 77.1408 210.186 76.9364 210.326 76.6908C210.467 76.4451 210.54 76.1669 210.539 75.884L210.783 60.727C210.801 60.3303 210.715 59.9359 210.534 59.5827C210.352 59.2296 210.081 58.9301 209.748 58.714V58.714Z" fill="#E2AC00"/>
<path d="M198.549 67.08C200.228 69.428 203.18 70.084 205.136 68.553C207.091 67.023 207.316 63.878 205.637 61.537C203.958 59.197 201.006 58.534 199.05 60.065C197.095 61.595 196.87 64.734 198.549 67.081V67.08Z" fill="white"/>
<path d="M193.956 55.814L174.864 44.322C174.7 44.247 174.515 44.2354 174.343 44.2894C174.171 44.3435 174.026 44.4593 173.934 44.6145C173.843 44.7697 173.813 44.9532 173.849 45.1296C173.885 45.3059 173.986 45.4625 174.131 45.569L193.223 57.061C193.387 57.136 193.572 57.1476 193.744 57.0935C193.916 57.0395 194.061 56.9237 194.153 56.7685C194.244 56.6133 194.274 56.4297 194.238 56.2534C194.202 56.0771 194.101 55.9205 193.956 55.814V55.814ZM193.171 60.483L166.856 44.643C166.695 44.5864 166.519 44.5883 166.359 44.6486C166.199 44.7089 166.065 44.8235 165.981 44.9725C165.898 45.1215 165.869 45.2952 165.901 45.4631C165.932 45.6311 166.022 45.7826 166.154 45.891L192.438 61.737C192.602 61.8132 192.788 61.8257 192.961 61.7718C193.134 61.718 193.28 61.6019 193.371 61.446C193.463 61.2901 193.493 61.1057 193.456 60.9288C193.419 60.7518 193.317 60.595 193.171 60.489V60.483Z" fill="#F2F2F2"/>
<path d="M200.408 61.865L153.624 33.338C153.373 33.193 153.089 33.1177 152.799 33.12C152.51 33.1223 152.226 33.2021 151.978 33.3512C151.729 33.5002 151.526 33.713 151.388 33.9674C151.249 34.2219 151.182 34.5087 151.192 34.798V51.048C151.185 51.648 151.492 52.207 152.002 52.521L198.806 80.451C199.055 80.5937 199.336 80.6678 199.623 80.6656C199.91 80.6634 200.19 80.5849 200.437 80.4384C200.683 80.2918 200.886 80.0823 201.024 79.8315C201.163 79.5807 201.232 79.2975 201.225 79.011L201.469 63.852C201.48 63.4572 201.388 63.0664 201.202 62.718C201.016 62.3697 200.742 62.0757 200.408 61.865Z" fill="#F47B56"/>
<path d="M189.209 70.232C190.888 72.579 193.84 73.235 195.796 71.705C197.751 70.175 197.976 67.029 196.297 64.688C194.618 62.348 191.666 61.685 189.71 63.216C187.755 64.746 187.53 67.885 189.209 70.232Z" fill="white"/>
<path d="M184.616 58.965L165.51 47.473C165.346 47.3968 165.16 47.3843 164.987 47.4381C164.814 47.492 164.668 47.6081 164.577 47.764C164.485 47.9199 164.455 48.1043 164.492 48.2812C164.529 48.4582 164.631 48.615 164.777 48.721L183.869 60.213C184.033 60.2892 184.219 60.3017 184.392 60.2478C184.565 60.194 184.711 60.0779 184.802 59.922C184.894 59.7661 184.924 59.5817 184.887 59.4048C184.85 59.2278 184.748 59.071 184.602 58.965H184.615H184.616ZM183.825 63.666L157.515 47.801C157.351 47.7248 157.165 47.7123 156.992 47.7661C156.819 47.82 156.673 47.9361 156.582 48.092C156.49 48.2479 156.46 48.4323 156.497 48.6092C156.534 48.7862 156.636 48.943 156.782 49.049L183.098 64.888C183.262 64.9642 183.448 64.9767 183.621 64.9228C183.794 64.869 183.94 64.7529 184.031 64.597C184.123 64.4411 184.153 64.2567 184.116 64.0798C184.079 63.9028 183.977 63.746 183.831 63.64L183.825 63.666Z" fill="#F2F2F2"/>
<path d="M188.668 63.782L141.872 35.254C141.621 35.109 141.337 35.0337 141.047 35.036C140.758 35.0383 140.474 35.1181 140.226 35.2672C139.977 35.4162 139.774 35.629 139.636 35.8834C139.497 36.1378 139.43 36.4246 139.44 36.714V52.965C139.438 53.2591 139.512 53.5487 139.656 53.8055C139.799 54.0624 140.006 54.2779 140.257 54.431L187.06 82.361C187.308 82.5037 187.59 82.5778 187.877 82.5756C188.164 82.5734 188.444 82.4949 188.691 82.3484C188.937 82.2018 189.14 81.9923 189.278 81.7415C189.417 81.4906 189.486 81.2075 189.479 80.921L189.723 65.762C189.744 64.962 189.343 64.211 188.668 63.782V63.782Z" fill="#68E1FD"/>
<path d="M188.668 63.782L141.872 35.254C141.621 35.109 141.337 35.0337 141.047 35.036C140.758 35.0383 140.474 35.1181 140.226 35.2672C139.977 35.4162 139.774 35.629 139.636 35.8834C139.497 36.1378 139.43 36.4246 139.44 36.714V52.965C139.438 53.2591 139.512 53.5487 139.656 53.8055C139.799 54.0624 140.006 54.2779 140.257 54.431L187.06 82.361C187.308 82.5037 187.59 82.5778 187.877 82.5756C188.164 82.5734 188.444 82.4949 188.691 82.3484C188.937 82.2018 189.14 81.9923 189.278 81.7415C189.417 81.4906 189.486 81.2075 189.479 80.921L189.723 65.762C189.744 64.962 189.343 64.211 188.668 63.782V63.782Z" fill="#68E1FD"/>
<path d="M177.463 72.148C179.142 74.496 182.094 75.152 184.05 73.621C186.005 72.091 186.23 68.946 184.551 66.605C182.873 64.265 179.92 63.602 177.965 65.132C176.009 66.662 175.803 69.802 177.463 72.148V72.148Z" fill="white"/>
<path d="M172.87 60.881L153.772 49.39C153.608 49.3129 153.421 49.2998 153.248 49.3533C153.075 49.4068 152.928 49.5231 152.836 49.6793C152.744 49.8355 152.714 50.0204 152.751 50.1978C152.789 50.3751 152.891 50.5321 153.038 50.638L172.13 62.13C172.294 62.2071 172.481 62.2202 172.654 62.1667C172.827 62.1132 172.974 61.9969 173.066 61.8407C173.158 61.6844 173.188 61.4995 173.151 61.3222C173.113 61.1448 173.011 60.9878 172.864 60.882H172.87V60.881ZM172.079 65.557L145.763 49.717C145.599 49.6408 145.413 49.6283 145.24 49.6821C145.067 49.7359 144.921 49.8521 144.83 50.008C144.738 50.1639 144.708 50.3483 144.745 50.5252C144.782 50.7022 144.884 50.859 145.03 50.965L171.345 66.805C171.509 66.8821 171.696 66.8952 171.869 66.8417C172.042 66.7882 172.189 66.6719 172.281 66.5157C172.373 66.3594 172.403 66.1745 172.366 65.9972C172.328 65.8198 172.226 65.6628 172.079 65.557Z" fill="#F2F2F2"/>
<path d="M127.25 62.187C124.226 64.789 121.939 68.1399 120.618 71.904C118.29 78.334 124.111 88.843 124.111 88.843L133.168 81.673" fill="#FF8F6F"/>
<path d="M126.273 147.21L123.815 145.853L124.459 142.342C124.459 142.342 128.119 142.689 128.44 143.988" fill="#003B94"/>
<path d="M127.173 147.158C127.726 146.818 128.305 146.515 128.878 146.213C130.299 145.435 132.351 144.631 133.226 143.171C133.405 142.876 133.49 142.533 133.469 142.188C133.449 141.844 133.323 141.514 133.11 141.242C131.824 139.686 129.006 142.245 127.566 140.522C127.283 140.181 127.147 134.772 127.147 134.772L121.667 136.252C121.667 136.252 120.741 147.12 120.844 147.789C120.946 148.457 122.831 149.075 122.831 149.075C123.393 148.956 123.929 148.738 124.414 148.432C124.986 148.014 124.465 142.914 125.198 143.628C125.932 144.342 126.253 147.133 126.253 147.133C126.558 147.179 126.867 147.187 127.173 147.158V147.158Z" fill="#F47B56"/>
<path d="M136.738 152.464L134.281 151.126L134.924 147.615C134.924 147.615 138.584 147.962 138.906 149.261" fill="#003B94"/>
<path d="M137.665 152.412C138.218 152.072 138.797 151.769 139.369 151.467C140.791 150.689 142.843 149.885 143.718 148.425C143.897 148.13 143.982 147.787 143.961 147.442C143.941 147.098 143.815 146.768 143.602 146.496C142.315 144.94 139.498 147.499 138.057 145.776C137.774 145.435 137.639 140.026 137.639 140.026L132.159 141.506C132.159 141.506 131.226 152.412 131.329 153.056C131.431 153.699 133.316 154.342 133.316 154.342C133.878 154.223 134.414 154.005 134.899 153.699C135.471 153.281 134.95 148.181 135.683 148.895C136.417 149.609 136.738 152.4 136.738 152.4C137.045 152.442 137.357 152.446 137.665 152.412Z" fill="#F47B56"/>
<path d="M118.882 117.133L117.267 138.721C117.267 138.721 119.84 142.271 128.467 140.297L128.55 125.744L118.882 117.133ZM128.846 121.41C128.659 123.268 128.846 143.77 128.846 143.77C128.846 143.77 131.232 148.232 141.621 143.77L141.473 126.348" fill="#3E2928"/>
<path d="M118.078 124.264C118.785 124.754 119.03 122.239 119.769 122.67C122.46 124.233 125.317 125.492 128.286 126.425H128.35C128.421 126.391 128.498 126.371 128.576 126.367C128.655 126.363 128.734 126.375 128.808 126.402C128.882 126.429 128.949 126.471 129.007 126.524C129.064 126.578 129.11 126.643 129.142 126.715C130.976 127.262 132.842 127.691 134.732 128.001C137.156 128.387 139.163 126.592 141.652 126.471C141.652 116.94 141.698 89.814 137.639 84.026L125.629 79.988C125.571 80.978 119.801 87.666 119.943 95.821C120.103 105.011 118.907 113.679 118.701 116.554C118.669 117.043 118.103 123.744 118.078 124.264V124.264Z" fill="#3E2928"/>
<path d="M138.745 73.068L137.639 84.001C137.639 84.001 128.679 84.361 124.819 81.698V72.425" fill="#FF8F6F"/>
<path d="M150.137 65.872L149.224 67.119C149.711 66.1043 150.14 65.063 150.51 64C150.768 63.274 149.603 62.984 149.346 63.711L149.211 64.084C149.323 63.698 149.428 63.31 149.526 62.92C149.547 62.8428 149.553 62.7621 149.543 62.6826C149.533 62.6031 149.506 62.5265 149.466 62.4573C149.426 62.3881 149.372 62.3277 149.308 62.2796C149.244 62.2315 149.171 62.1968 149.093 62.1774C149.015 62.158 148.934 62.1544 148.855 62.1668C148.776 62.1792 148.7 62.2073 148.632 62.2495C148.564 62.2917 148.505 62.3471 148.458 62.4124C148.412 62.4778 148.379 62.5518 148.362 62.63C148.11 63.6395 147.807 64.6358 147.455 65.615C147.652 64.7457 147.794 63.865 147.88 62.978C147.957 62.213 146.754 62.245 146.683 62.978C146.583 63.988 146.403 64.988 146.143 65.968C146.143 65.6227 146.11 65.2783 146.046 64.939C146.037 64.8537 146.01 64.7712 145.967 64.6971C145.924 64.6229 145.866 64.5588 145.796 64.509C145.763 64.374 145.725 64.2405 145.68 64.109C145.634 63.9742 145.543 63.8598 145.421 63.7859C145.3 63.7119 145.156 63.6831 145.015 63.7046C144.875 63.7261 144.746 63.7965 144.652 63.9034C144.558 64.0102 144.505 64.1468 144.502 64.289L144.425 68.791C144.207 69.258 143.924 69.691 143.583 70.078C144.161 70.478 144.72 70.908 145.255 71.364C145.733 71.767 146.188 72.197 146.619 72.65C147.005 72.17 147.376 71.681 147.732 71.184C147.776 71.1464 147.815 71.103 147.847 71.055C148.919 69.4697 150.026 67.9087 151.167 66.373C151.643 65.846 150.594 65.261 150.137 65.872V65.872Z" fill="#FFB5A9"/>
<path d="M133.059 63.1C133.059 63.1 137.292 64.238 139.009 66.959C140.085 68.8416 141.032 70.7943 141.846 72.804L144.972 67.949C144.972 67.949 148.767 69.113 150.272 70.978C150.272 70.978 145.77 80.818 141.846 81.66C137.922 82.502 133.754 75.885 133.754 75.885C133.754 75.885 132.892 78.65 133.059 75.698" fill="#FF8F6F"/>
<path d="M135.748 73.615C134.518 72.6144 133.589 71.292 133.065 69.795C132.557 68.065 133.194 66.547 133.785 64.939C134.426 63.3454 134.8 61.6571 134.892 59.942C134.944 58.258 134.751 56.572 134.635 54.894C134.619 54.8223 134.619 54.7477 134.635 54.676C134.069 52.778 132.911 51.171 130.627 50.978C124.716 50.476 124.381 57.023 124.427 59.685C124.471 62.348 124.755 64.148 122.793 65.261C120.831 66.373 119.415 69.293 121.287 71.653C123.159 74.013 121.48 73.152 120.232 75.248C118.985 77.345 119.306 79.962 121.866 80.908C124.426 81.853 136.326 80.078 137.42 78.978C137.808 78.535 138.009 77.9584 137.98 77.37C137.713 75.8902 136.92 74.5567 135.748 73.615Z" fill="#007F68"/>
<path d="M141.563 19.62C142.565 21.0617 143.144 22.7547 143.235 24.508C143.347 25.3107 143.152 26.1262 142.688 26.791C142.491 27.0079 142.227 27.1528 141.938 27.203C141.649 27.2531 141.352 27.2056 141.093 27.068C140.768 26.9381 140.474 26.7404 140.231 26.488C140.013 26.2835 139.826 26.0476 139.678 25.788L139.524 25.486C139.482 25.565 139.43 25.638 139.369 25.704C139.216 25.824 139.034 25.901 138.842 25.929C138.52 25.989 138.188 25.949 137.89 25.814C137.179 25.5063 136.587 24.9756 136.204 24.302C135.743 23.5706 135.485 22.7293 135.458 21.865C135.363 21.165 135.582 20.459 136.056 19.935C136.26 19.7384 136.52 19.6095 136.799 19.5658C137.079 19.5221 137.366 19.5659 137.62 19.691C137.878 19.794 138.115 19.942 138.32 20.129C138.496 20.278 138.652 20.449 138.784 20.637L138.9 20.843V20.27L140.186 20.772L140.315 24.386C140.324 24.645 140.404 24.896 140.546 25.113C140.667 25.322 140.852 25.486 141.074 25.583C141.696 25.827 141.983 25.291 141.936 23.974C141.871 22.6705 141.441 21.4115 140.694 20.341C140.023 19.2518 139.026 18.4016 137.844 17.911C137.415 17.6932 136.931 17.6092 136.454 17.6698C135.977 17.7304 135.53 17.9329 135.169 18.251C134.785 18.6369 134.492 19.1043 134.313 19.6185C134.133 20.1328 134.072 20.6808 134.133 21.222C134.207 22.6008 134.651 23.9341 135.42 25.081C136.032 26.2137 136.996 27.1165 138.166 27.653C138.574 27.823 139.011 27.908 139.453 27.903C139.74 27.923 140.028 27.87 140.289 27.749L140.546 27.608L141.325 29.055L141.196 29.145C141.074 29.213 140.947 29.274 140.816 29.325C140.611 29.414 140.395 29.475 140.173 29.505C139.889 29.543 139.602 29.543 139.318 29.505C138.945 29.4604 138.58 29.3673 138.231 29.228C137.241 28.8022 136.361 28.1558 135.658 27.338C134.826 26.4178 134.152 25.3659 133.664 24.225C133.175 23.1358 132.896 21.9645 132.84 20.772C132.771 19.7695 132.975 18.7671 133.432 17.872C133.811 17.1207 134.466 16.5447 135.259 16.264C136.09 15.9902 136.994 16.0358 137.793 16.392C139.354 17.0516 140.671 18.1799 141.563 19.621V19.62ZM138.726 24.193C138.937 23.923 139.032 23.581 138.99 23.241C138.98 22.8217 138.862 22.412 138.649 22.051C138.474 21.7359 138.201 21.4874 137.87 21.344C137.743 21.279 137.6 21.254 137.459 21.2724C137.318 21.2908 137.186 21.3517 137.08 21.447C136.969 21.5732 136.886 21.7218 136.837 21.8827C136.788 22.0436 136.774 22.2132 136.796 22.38C136.811 22.804 136.937 23.216 137.163 23.576C137.348 23.902 137.635 24.16 137.98 24.309C138.227 24.436 138.528 24.389 138.726 24.193V24.193ZM217.512 89.255C218.515 90.6956 219.095 92.3887 219.184 94.142C219.296 94.9446 219.101 95.76 218.638 96.425C218.44 96.6412 218.176 96.7857 217.887 96.8358C217.598 96.8859 217.301 96.8389 217.042 96.702C216.718 96.5703 216.424 96.3728 216.18 96.122C215.963 95.9164 215.777 95.6807 215.627 95.422L215.473 95.12C215.429 95.198 215.377 95.2711 215.318 95.338C215.166 95.458 214.984 95.537 214.791 95.563C214.472 95.627 214.141 95.589 213.845 95.454C213.133 95.1446 212.542 94.6117 212.16 93.936C211.694 93.204 211.434 92.3601 211.407 91.493C211.308 90.793 211.527 90.085 212.006 89.563C212.209 89.3672 212.467 89.2387 212.745 89.195C213.024 89.1514 213.309 89.1947 213.562 89.319C213.82 89.421 214.058 89.569 214.263 89.756C214.439 89.908 214.594 90.081 214.727 90.271L214.849 90.476V89.904L216.135 90.399L216.264 94.013C216.275 94.272 216.355 94.523 216.495 94.74C216.616 94.95 216.801 95.114 217.023 95.21C217.666 95.454 217.93 94.92 217.891 93.602C217.826 92.2965 217.396 91.0354 216.65 89.962C215.979 88.8767 214.985 88.029 213.807 87.538C213.379 87.32 212.895 87.2353 212.418 87.2948C211.941 87.3544 211.493 87.5554 211.131 87.872C210.749 88.2623 210.459 88.7339 210.284 89.2516C210.11 89.7693 210.054 90.3197 210.121 90.862C210.193 92.2409 210.637 93.5745 211.407 94.721C212.043 95.827 213.018 96.6995 214.187 97.21C214.594 97.38 215.031 97.467 215.473 97.467C215.76 97.484 216.047 97.431 216.309 97.312L216.566 97.171L217.345 98.618L217.215 98.708C217.094 98.777 216.967 98.837 216.836 98.888C216.63 98.9732 216.414 99.0336 216.193 99.068C215.907 99.1059 215.617 99.1059 215.331 99.068C214.96 99.021 214.597 98.9259 214.251 98.785C213.261 98.361 212.381 97.7166 211.678 96.901C210.845 95.9785 210.171 94.9242 209.683 93.781C209.195 92.6922 208.915 91.5211 208.86 90.329C208.79 89.3284 208.995 88.3278 209.452 87.435C209.832 86.6827 210.486 86.1047 211.279 85.82C212.113 85.5495 213.017 85.5958 213.819 85.95C215.362 86.6437 216.652 87.7983 217.512 89.255V89.255ZM214.675 93.827C214.888 93.558 214.985 93.216 214.945 92.875C214.934 92.4551 214.814 92.0451 214.598 91.685C214.427 91.3698 214.155 91.121 213.826 90.978C213.7 90.9119 213.557 90.8858 213.415 90.9032C213.274 90.9205 213.141 90.9804 213.035 91.075C212.922 91.2001 212.838 91.3482 212.788 91.5091C212.738 91.67 212.723 91.8399 212.745 92.007C212.76 92.429 212.887 92.84 213.112 93.197C213.297 93.525 213.584 93.785 213.929 93.937C214.049 93.9995 214.186 94.0226 214.32 94.0028C214.454 93.9831 214.578 93.9215 214.675 93.827" fill="#F47B56"/>
<path style="mix-blend-mode:multiply" opacity="0.25" d="M89.324 116.676L67.55 104.29L45.782 116.702C45.782 116.702 57.895 124.264 68.733 130.618C75.616 125.756 81.733 120.194 89.324 116.676V116.676Z" fill="url(#paint4_linear)"/>
<g filter="url(#filter0_d)">
<path d="M50 81.878V108.813L70.984 120.83L94.678 106.817V79.883" fill="black"/>
</g>
<path d="M50 81.878V108.813L70.984 120.83L94.678 106.817V79.883" fill="#FF9271"/>
<path d="M70.984 93.896V120.831L94.678 106.818V79.883L70.984 93.896Z" fill="#DF5C34"/>
<path d="M50 81.878L74.347 68L94.677 79.883L70.984 93.896L50 81.878Z" fill="#F47B56"/>
<path d="M71.541 74.182C74.0098 74.0154 76.4748 74.5584 78.645 75.747C79.888 76.478 80.567 77.241 80.663 78.037C80.759 78.832 80.349 79.524 79.382 80.107C78.9232 80.3905 78.4177 80.5902 77.889 80.697C77.455 80.8 77.009 80.846 76.563 80.832L76.076 80.794C76.122 80.903 76.152 81.017 76.166 81.134C76.1509 81.4108 76.0625 81.6786 75.91 81.91C75.656 82.34 75.294 82.696 74.86 82.942C73.8477 83.5435 72.6874 83.8501 71.51 83.827C70.2917 83.86 69.0878 83.5562 68.031 82.949C67.032 82.359 66.52 81.666 66.481 80.871C66.4849 80.45 66.607 80.0386 66.8335 79.6837C67.0601 79.3288 67.3818 79.0448 67.762 78.864C68.1271 78.6362 68.5246 78.4653 68.941 78.357C69.2728 78.2612 69.6143 78.2032 69.959 78.184H70.312L69.671 77.799L71.471 76.677L75.641 79.133C75.9599 79.3047 76.3164 79.3946 76.6785 79.3946C77.0407 79.3946 77.3972 79.3047 77.716 79.133C78.6 78.582 78.284 77.857 76.768 76.959C75.1569 76.0717 73.3254 75.6643 71.49 75.785C69.5448 75.8089 67.6419 76.356 65.981 77.369C64.47 78.314 63.721 79.441 63.733 80.749C63.733 82.032 64.533 83.173 66.09 84.09C67.79 85.04 69.719 85.5 71.663 85.418C73.5993 85.4499 75.5064 84.9438 77.172 83.956C77.7482 83.6141 78.265 83.1808 78.702 82.673C78.995 82.363 79.214 81.99 79.343 81.583L79.433 81.179L81.809 81.313C81.813 81.386 81.813 81.459 81.809 81.532C81.766 81.728 81.708 81.921 81.636 82.109C81.533 82.409 81.396 82.699 81.226 82.968C80.982 83.332 80.699 83.668 80.381 83.968C79.961 84.373 79.501 84.73 79.004 85.033C77.574 85.8914 75.99 86.4621 74.341 86.713C72.544 87.0269 70.709 87.0593 68.902 86.809C67.2594 86.6156 65.6719 86.0969 64.232 85.283C63.07 84.6673 62.1395 83.6906 61.581 82.5C61.3527 81.9806 61.2349 81.4194 61.2349 80.852C61.2349 80.2846 61.3527 79.7234 61.581 79.204C62.1344 77.9913 63.0557 76.9836 64.214 76.324C66.4209 74.9676 68.9511 74.2279 71.541 74.182V74.182ZM73.873 80.813C73.8311 80.5938 73.7363 80.3882 73.5969 80.2139C73.4574 80.0397 73.2776 79.9021 73.073 79.813C72.5681 79.5157 71.993 79.3586 71.407 79.358C70.8628 79.3373 70.3243 79.4753 69.857 79.755C69.473 79.942 69.226 80.328 69.217 80.755C69.275 81.2 69.562 81.582 69.972 81.762C70.4881 82.0569 71.0748 82.2056 71.669 82.192C72.2403 82.2064 72.8041 82.0598 73.296 81.769C73.669 81.599 73.906 81.223 73.899 80.813" fill="#3E2928"/>
<defs>
<filter id="filter0_d" x="0" y="54.883" width="144.678" height="140.947" filterUnits="userSpaceOnUse" color-interpolation-filters="sRGB">
<feFlood flood-opacity="0" result="BackgroundImageFix"/>
<feColorMatrix in="SourceAlpha" type="matrix" values="0 0 0 0 0 0 0 0 0 0 0 0 0 0 0 0 0 0 127 0"/>
<feOffset dy="25"/>
<feGaussianBlur stdDeviation="25"/>
<feColorMatrix type="matrix" values="0 0 0 0 0.209139 0 0 0 0 0.0691446 0 0 0 0 0.478091 0 0 0 0.497159 0"/>
<feBlend mode="normal" in2="BackgroundImageFix" result="effect1_dropShadow"/>
<feBlend mode="normal" in="SourceGraphic" in2="effect1_dropShadow" result="shape"/>
</filter>
<linearGradient id="paint0_linear" x1="163.703" y1="102.273" x2="156.708" y2="111.751" gradientUnits="userSpaceOnUse">
<stop stop-color="#78B46A"/>
<stop offset="0.03" stop-color="#7F3500"/>
<stop offset="1" stop-color="white"/>
</linearGradient>
<linearGradient id="paint1_linear" x1="137.812" y1="143.62" x2="123.131" y2="159.714" gradientUnits="userSpaceOnUse">
<stop stop-color="#78B46A"/>
<stop offset="0.03" stop-color="#7F3500"/>
<stop offset="1" stop-color="white"/>
</linearGradient>
<linearGradient id="paint2_linear" x1="105.907" y1="76.0879" x2="94.9046" y2="88.1518" gradientUnits="userSpaceOnUse">
<stop stop-color="#78B46A"/>
<stop offset="0.03" stop-color="#7F3500"/>
<stop offset="1" stop-color="white"/>
</linearGradient>
<linearGradient id="paint3_linear" x1="208.648" y1="76.2239" x2="202.049" y2="71.4131" gradientUnits="userSpaceOnUse">
<stop stop-color="white" stop-opacity="0"/>
<stop offset="0.99" stop-color="#DC841E"/>
</linearGradient>
<linearGradient id="paint4_linear" x1="81.5662" y1="111.557" x2="66.6718" y2="127.886" gradientUnits="userSpaceOnUse">
<stop stop-color="#78B46A"/>
<stop offset="0.03" stop-color="#7F3500"/>
<stop offset="1" stop-color="white"/>
</linearGradient>
</defs>
</svg>